<svg width="28" height="36" viewBox="0 0 28 36" fill="none" xmlns="http://www.w3.org/2000/svg">
<path d="M27.51 33.8008L27.51 30.2125C27.51 30.2125 28.0253 26.8817 24.4154 25.0875C20.8055 23.2934 12.0424 17.9136 12.0424 17.9136L24.1591 13.3009C24.1591 13.3009 26.9947 12.019 26.9947 8.17589C26.9947 4.33282 26.2203 -1.3044 21.5825 1.51421C16.95 4.32746 3.83505 12.5071 3.79458 12.5312C1.26386 14.1108 0.354631 18.2247 1.01564 20.9468C1.70093 23.7734 4.85489 25.1331 7.15898 26.5411C11.3382 29.0969 15.5282 31.6419 19.8746 33.9054C21.4476 34.7287 27.5181 38.0569 27.51 33.8008Z" fill="white"/>
</svg>
