<svg width="37" height="28" viewBox="0 0 37 28" fill="none" xmlns="http://www.w3.org/2000/svg">
<path d="M12.4185 26.9269C16.8618 24.6096 21.1048 21.8845 25.259 19.0864C27.3524 17.6762 29.4278 16.2302 31.4093 14.6669C33.1456 13.2975 34.9566 11.7123 35.8052 9.62254C36.5375 7.82158 36.5807 5.76128 35.7602 4.00029C34.9397 2.2393 33.1343 0.619507 31.0665 0.596164C29.9467 0.583106 28.8071 1.05716 27.7752 1.45348C26.6723 1.87722 25.5921 2.36904 24.5475 2.92196C22.3394 4.08831 20.2817 5.53878 18.1951 6.90569C13.9874 9.66281 9.77162 12.4093 5.58108 15.1931C3.83087 16.3549 1.98241 17.6284 1.27095 19.6958C0.549936 21.7924 1.62993 23.6044 3.01043 25.1189C3.64046 25.8102 4.43767 26.3953 5.39074 26.5325C6.26841 26.6597 7.14571 26.4429 7.94927 26.0825C8.9036 25.6557 9.77179 25.064 10.6452 24.4958C11.7151 23.8001 12.7774 23.0924 13.8343 22.3783C15.8915 20.9865 17.9279 19.5643 19.9567 18.1323C21.9856 16.7004 24.0745 15.3734 25.9146 13.7452C26.6106 13.1291 27.5782 12.3605 27.7111 11.3836C27.8342 10.4664 27.3014 9.5582 26.6193 8.98916C24.9014 7.55759 22.5286 7.84205 20.6366 8.79449C19.6181 9.30751 18.681 9.9799 17.7342 10.6123C16.6807 11.3144 15.6287 12.0169 14.5752 12.7191C12.5013 14.1021 10.3923 15.4687 8.41798 16.9934C7.44265 17.7463 6.48522 18.5059 5.55337 19.3112C4.95385 19.83 5.78322 20.5976 6.38738 20.2875C10.4064 18.2208 14.0957 15.5679 17.8176 13.0194C19.4788 11.882 21.1815 10.4333 23.1583 9.90073C23.8876 9.70481 24.7473 9.74261 25.4282 10.068C26.0646 10.372 26.797 11.0827 26.2785 11.7891C25.6533 12.642 24.7593 13.3316 23.9234 13.9658C23.0425 14.6337 22.1336 15.2674 21.2349 15.9114C19.383 17.2371 17.5288 18.5593 15.6619 19.8617C13.795 21.1641 11.9142 22.4486 10.0102 23.697C8.67158 24.575 6.88401 26.0028 5.17739 25.4617C4.26934 25.174 3.61163 24.3533 3.05945 23.6278C2.46308 22.8431 1.9596 21.9805 2.03453 20.9557C2.17881 18.974 3.92325 17.6153 5.46003 16.6027C9.23902 14.1124 13.0627 11.6859 16.8577 9.22059C20.6074 6.7844 24.2856 4.05473 28.5181 2.51623C29.4024 2.19522 30.4152 1.75765 31.3718 1.88887C32.3285 2.02009 33.1941 2.55641 33.8554 3.23494C35.1578 4.5684 35.5586 6.49314 35.1279 8.28778C34.6512 10.2737 33.1744 11.8133 31.6549 13.1079C29.9396 14.5696 28.0691 15.8682 26.2403 17.1839C22.5582 19.8308 18.7481 22.2937 15.007 24.8545C14.0974 25.4776 13.1978 26.1029 12.3131 26.761C12.2108 26.8377 12.3066 26.983 12.4182 26.9246L12.4185 26.9269Z" fill="#844A25" stroke="#844A25"/>
</svg>
