<svg width="32" height="24" viewBox="0 0 32 24" fill="none" xmlns="http://www.w3.org/2000/svg">
<path fill-rule="evenodd" clip-rule="evenodd" d="M31.4998 1.39995V1.99995C31.4998 1.99995 31.9998 2.14995 31.7998 2.14995H31.6498L31.4998 2.64995V3.19995C31.2998 3.19995 31.2498 3.09995 31.1998 3.09995L31.0998 2.99995C31.0998 3.19995 31.0998 3.39995 30.9998 3.39995L29.9998 3.64995V3.99995H25.6498H23.4998H23.0998C22.8498 4.09995 22.6998 4.09995 22.5998 4.49995H21.5998C21.1998 4.09995 20.8998 3.99995 20.6998 3.99995H19.4998C18.9998 3.99995 18.4998 3.99995 18.0998 4.14995H16.4998L15.9998 3.99995C15.7498 3.99995 15.4998 3.99995 15.1998 4.09995C14.3998 4.24995 12.5998 4.34995 9.7998 4.34995C8.0998 4.34995 7.0998 4.34995 6.7998 4.49995C6.5498 4.49995 6.4498 4.49995 6.4498 4.39995C6.2998 4.39995 6.2998 4.39995 6.2998 4.24995H5.3498L4.4998 4.34995C3.9998 4.34995 3.7498 4.44995 3.4998 4.49995C2.2998 4.29995 1.4998 4.19995 0.999805 4.19995L0.749805 3.99995H0.849805C0.849805 3.84995 0.699805 3.74995 0.449805 3.64995C0.0998047 3.49995 -0.0501953 3.29995 -0.0501953 3.29995V2.29995C-0.0501953 2.29995 0.0498047 1.89995 0.299805 1.79995C0.499805 1.79995 0.599805 1.69995 0.449805 1.49995V1.24995C0.599805 1.09995 0.849805 0.949951 1.3498 0.849951L1.6498 0.749951L2.1498 0.499951H2.9998C2.9998 0.499951 3.7998 0.599951 4.3998 0.499951C4.5498 0.399951 4.8998 0.349951 5.3998 0.349951C5.8998 0.349951 6.2998 0.349951 6.5998 0.449951H7.7498L7.8498 0.349951L7.4998 0.199951C7.6498 0.0999512 8.7498 0.0999512 10.6498 0.0999512C11.1498 0.0999512 11.8998 0.0999512 12.8498 0.449951H18.6998C18.6998 0.449951 19.3998 0.149951 19.6998 0.0999512C19.9498 0.0999512 20.1998 0.0999512 20.3998 -0.0500488H20.7998L21.6498 0.249951C21.7498 0.249951 21.7998 0.249951 21.7998 0.349951L21.9998 0.449951H22.0998C22.5998 0.299951 23.0998 0.249951 23.5998 0.249951C24.1998 0.249951 24.6998 0.249951 25.1998 0.399951H26.2998L27.2998 0.199951C28.2998 0.199951 29.0498 0.349951 29.1998 0.449951C29.3998 0.599951 29.6998 0.699951 30.0498 0.749951H30.3998V0.999951H30.7498L30.9498 1.14995L31.0498 1.24995H31.2498L31.4998 0.999951H31.8998L31.9998 1.14995V1.24995C31.9998 1.24995 31.9998 1.34995 31.4998 1.39995ZM3.7498 0.899951L3.4998 0.749951C3.3998 0.749951 3.2998 0.749951 3.2498 0.849951L3.4998 0.999951H3.9998L3.8498 0.849951L3.7498 0.899951ZM4.2498 3.74995C3.9998 3.74995 3.8998 3.74995 3.8998 3.84995C3.8998 3.94995 4.1498 3.99995 4.4998 3.99995C4.6998 3.99995 4.7498 3.99995 4.7498 3.89995C4.7498 3.79995 4.5498 3.74995 4.2498 3.74995ZM8.4998 0.849951H7.9998L8.2998 0.999951H8.6498L8.4998 0.849951ZM11.1998 2.84995C10.8998 2.84995 10.6998 2.84995 10.4998 2.99995H10.5998V3.09995C11.0998 3.09995 11.3998 3.09995 11.5998 2.99995C11.4998 2.99995 11.3498 2.99995 11.1998 2.89995V2.84995ZM26.9998 1.49995H27.6998L27.8998 1.24995C27.7498 1.24995 27.3998 1.24995 26.8998 1.49995H26.9998ZM29.4998 3.69995H28.9998L28.8498 3.79995H29.4998V3.69995ZM29.9998 0.499951H29.7498L29.8498 0.399951C29.8498 0.399951 29.9498 0.399951 29.9498 0.299951L30.0998 0.399951H29.9998V0.499951ZM22.6498 0.0999512H22.4498L22.7998 -0.0500488H22.8998C22.8998 0.0499512 22.9998 0.0499512 22.9998 0.0999512H22.4998H22.6498ZM22.4498 9.59995L22.7998 9.44995H22.8998C22.8998 9.54995 22.9998 9.54995 22.9998 9.59995H22.3498H22.4498ZM29.9498 9.94995H29.7998L29.8998 9.84995C29.8998 9.84995 29.9998 9.84995 29.9998 9.74995L30.1498 9.84995H29.9998V9.94995H29.9498ZM0.499805 11.3C0.649805 11.3 0.749805 11.2 0.599805 11V10.75C0.749805 10.6 0.999805 10.45 1.4998 10.35L1.7998 10.25L2.2998 9.99995H2.9998C2.9998 9.99995 3.7998 10.1 4.3998 9.99995C4.5498 9.89995 4.8998 9.84995 5.3998 9.84995C5.8998 9.84995 6.2998 9.84995 6.5998 9.94995H7.7498V10.15H10.6498C11.1498 10.15 11.8998 9.64995 12.8498 9.94995H18.6998C18.6998 9.94995 19.3998 9.64995 19.6998 9.59995C19.9498 9.59995 20.1998 9.59995 20.3998 9.44995H21.2498H20.7498L21.5998 9.74995C21.6998 9.74995 21.7498 9.74995 21.7498 9.84995C21.7498 9.84995 21.7498 9.64995 21.8498 9.49995L23.6498 9.79995C24.2498 9.79995 24.7498 9.79995 25.2498 9.94995H26.3498L27.3498 9.74995C28.3498 9.74995 29.0998 9.89995 29.2498 9.99995C29.4498 10.15 29.7498 10.25 30.0998 10.3H30.4498V10.4H30.7998L30.9998 10.55L31.0998 10.65H31.2998L30.9998 10.5H31.3998L31.4998 10.65V10.75C31.4998 10.75 31.4998 10.85 30.9998 10.9V11.25L31.4998 11.55C31.4998 11.55 31.9998 11.7 31.7998 11.7H31.6498L31.4998 12.2V12.75C31.2998 12.75 31.2498 12.65 31.1998 12.65L31.0998 12.55C31.0998 12.75 31.0998 12.95 30.9998 12.95L29.9998 13.2V13.55H25.6498H23.4998H23.0998C22.8498 13.65 22.6998 13.15 22.5998 13.55H21.5998C21.1998 13.15 20.8998 13.55 20.6998 13.55H19.4998C18.9998 13.55 18.4998 13.55 18.0998 13.7H16.4998L15.9998 13.55C15.7498 13.55 15.4998 13.55 15.1998 13.65C14.3998 13.8 12.5998 13.9 9.7998 13.9C8.0998 13.9 7.0998 13.9 6.7998 14.05C6.5498 14.05 6.4498 14.05 6.4498 13.95C6.2998 13.95 6.2998 13.95 6.2998 13.8H6.0998L5.3498 14.3L4.4498 14.4C3.9498 14.4 3.6998 14.5 3.4498 14.55C2.2498 14.35 1.4498 13.75 0.949805 13.75L0.699805 13.6H0.799805C0.799805 13.45 0.649805 13.35 0.399805 13.25C0.0498047 13.1 -0.100195 12.9 -0.100195 12.9V11.9C-0.100195 11.9 -0.000195324 11.5 0.249805 11.4L0.499805 11.3ZM29.1998 13.3H29.5998V13.2H29.0998L28.9498 13.3H29.1998ZM10.6998 12.5V12.6C11.1998 12.6 11.4998 12.6 11.6998 12.5C11.5998 12.5 11.4498 12.5 11.2998 12.4C10.9998 12.4 10.7998 12.4 10.5998 12.5H10.6998ZM8.3998 10.5H8.7498L8.5998 10.35H8.0998L8.3998 10.5ZM4.4998 14C4.6998 14 4.7498 14 4.7498 13.9C4.7498 13.8 4.5498 13.75 4.2498 13.75C3.9998 13.75 3.8998 13.75 3.8998 13.85C3.8998 13.95 4.1498 14 4.5498 14H4.4998ZM3.4998 10.5H3.9998L3.8498 10.35H3.1998L3.4998 10.5ZM22.3498 19.1L22.7498 19H22.8498C22.8498 19.1 22.9498 19.1 22.9498 19.15H22.3498V19.1ZM29.4998 19.5H29.7498H29.4498H29.4998ZM29.4998 19.2999L29.6498 19.4H29.3498C29.3498 19.4 29.4498 19.4 29.4498 19.2999H29.4998ZM0.349805 20.7999C0.549805 20.7999 0.649805 20.7 0.499805 20.5V20.25C0.649805 20.1 0.899805 19.95 1.3998 19.85L1.6998 19.75L2.1998 19.5H2.9998C2.9998 19.5 3.7998 19.6 4.3998 19.5C4.5498 19.4 4.8998 19.35 5.3998 19.35C5.8998 19.35 6.2998 19.35 6.5998 19.45C6.7498 19.45 6.8998 19.95 7.0998 19.95H7.7498L7.8498 19.85L7.4998 19.75C7.6498 19.6 8.7498 19.6 10.6498 19.6C11.1498 19.6 11.8998 19.1 12.8498 19.45H17.2498L18.6498 19.95C18.6498 19.95 19.3498 19.65 19.6498 19.6C19.8998 19.6 20.1498 19.6 20.3498 19.45H20.7498L21.5998 19.75C21.6998 19.75 21.7498 19.75 21.7498 19.85L21.9498 19.95H22.0498C22.5498 19.8 23.0498 19.25 23.5498 19.25C24.1498 19.25 24.6498 19.25 25.1498 19.4H26.2498L27.2498 19.2C28.2498 19.2 28.9998 19.35 29.1498 19.45C29.3498 19.6 29.1498 19.7 29.4998 19.75H29.8498V19.85H30.1998L30.3998 20L30.4998 20.1H30.6998L30.8998 20L30.9998 20.15V20.25C30.9998 20.25 31.4998 20.35 30.9998 20.4V20.75L31.4998 21.0499C31.4998 21.0499 31.9998 21.2 31.7998 21.2H31.6498L31.4998 21.7V22.25C31.2998 22.25 31.2498 22.15 31.1998 22.15L31.0998 22.0499C31.0998 22.25 31.0998 22.45 30.9998 22.45L29.9998 22.7V23.0499H25.6498H25.2998C25.0998 23.0499 24.9498 22.5499 24.7998 22.5499C24.2998 22.5499 23.8998 23.0499 23.4998 23.0499C23.4998 23.0499 23.2998 22.5499 23.0998 22.5499C22.8498 22.65 22.6998 22.65 22.5998 23.0499H21.5998C21.1998 22.65 20.8998 22.5499 20.6998 22.5499C20.4498 22.5499 20.1998 23.0499 19.9498 23.0499L19.7498 22.5499L19.5498 23.0499C19.0498 23.0499 18.5498 23.05 18.1498 23.2L17.3998 23.2999C17.0998 23.2999 16.7998 23.2999 16.3998 23.15L15.8998 23.0499C15.6498 23.0499 15.3998 23.0499 15.0998 23.15C14.2998 23.2999 12.4998 23.4 9.6998 23.4C7.9998 23.4 6.9998 23.9 6.6998 24.0499C6.4498 24.0499 6.3498 24.05 6.3498 23.95C6.1998 23.95 6.1998 23.9499 6.1998 23.7999H5.2498L4.3498 23.9C3.8498 23.9 3.5998 23.5 3.3498 23.5499C2.1498 23.3499 1.3498 23.25 0.849805 23.25L0.599805 23.1H0.699805C0.699805 22.95 0.549805 22.85 0.299805 22.75C-0.0501953 22.6 -0.200195 22.4 -0.200195 22.4V21.4C-0.200195 21.4 -0.100195 21 0.149805 20.9L0.349805 20.7999ZM29.0998 22.7999H29.4998V22.7H28.9998L28.8498 22.7999H29.0998ZM27.4998 20.5H27.6998L27.8998 20.25C27.7498 20.25 27.3998 20.25 26.8998 20.5H27.3998H27.4998ZM10.6998 22.1C11.1998 22.1 11.4998 22.1 11.6998 22C11.5998 22 11.4498 22 11.2998 21.9C10.9998 21.9 10.7998 21.9 10.5998 22H10.6998V22.1ZM8.5998 19.85H8.0998L8.3998 20H8.7498L8.5998 19.85ZM4.5998 23.5C4.6998 23.5 4.7498 23.5 4.7498 23.4C4.7498 23.2999 4.5498 23.25 4.2498 23.25C3.9998 23.25 3.8998 22.75 3.8998 22.85C3.8998 22.95 4.1498 23.5 4.5498 23.5H4.5998ZM3.5998 20H3.8998L3.7498 19.85H3.1998L3.4998 20H3.5998Z" fill="white"/>
</svg>
