<svg width="297" height="83" viewBox="0 0 297 83" fill="none" xmlns="http://www.w3.org/2000/svg">
<path d="M272.237 13.9648C283.363 17.4537 294.834 25.0403 296.379 39.078C299.698 69.1319 265.745 73.1242 247.26 74.5058C200.021 78.0415 71.579 82.2797 71.3911 82.2797C50.5373 82.9705 19.3714 84.9374 5.41666 62.8682C-1.30499 52.2375 0.250153 37.3218 4.55032 25.8482C10.5518 9.85535 24.5692 3.18191 39.2336 1.6599C64.2937 -0.939232 90.314 1.82381 115.385 3.05312C150.454 4.76246 185.503 6.96352 220.541 9.3285C234.256 10.2534 247.887 11.1549 261.601 11.9393C264.889 12.1267 268.542 12.8057 272.216 13.9531L272.237 13.9648Z" fill="#F3410E"/>
</svg>
