<svg width="191" height="54" viewBox="0 0 191 54" fill="none" xmlns="http://www.w3.org/2000/svg">
<path d="M175.263 8.70243C182.448 10.9556 189.856 15.855 190.854 24.9204C192.997 44.3291 171.071 46.9074 159.133 47.7996C128.626 50.0829 45.6789 52.82 45.5576 52.82C32.0903 53.266 11.9634 54.5363 2.95152 40.2841C-1.3893 33.4188 -0.384979 23.7863 2.39206 16.3767C6.26779 6.04857 15.3201 1.73889 24.7904 0.755982C40.9741 -0.922525 57.7779 0.861834 73.9684 1.65572C96.6161 2.75961 119.25 4.18105 141.878 5.70834C150.735 6.30564 159.538 6.88783 168.395 7.3944C170.518 7.51538 172.877 7.95391 175.25 8.69487L175.263 8.70243Z" fill="#F3410E"/>
</svg>
