<svg width="192" height="54" viewBox="0 0 192 54" fill="none" xmlns="http://www.w3.org/2000/svg">
<path d="M175.763 8.70243C182.948 10.9556 190.356 15.855 191.354 24.9204C193.497 44.3291 171.571 46.9074 159.633 47.7996C129.126 50.0829 46.1789 52.82 46.0576 52.82C32.5903 53.266 12.4634 54.5363 3.45152 40.2841C-0.889297 33.4188 0.115021 23.7863 2.89206 16.3767C6.76779 6.04857 15.8201 1.73889 25.2904 0.755982C41.4741 -0.922525 58.2779 0.861834 74.4684 1.65572C97.1161 2.75961 119.75 4.18105 142.378 5.70834C151.235 6.30564 160.038 6.88783 168.895 7.3944C171.018 7.51538 173.377 7.95391 175.75 8.69487L175.763 8.70243Z" fill="#F1B72B"/>
</svg>
