<svg width="297" height="83" viewBox="0 0 297 83" fill="none" xmlns="http://www.w3.org/2000/svg">
<path d="M272.011 13.8094C283.138 17.2984 294.608 24.885 296.153 38.9226C299.472 68.9765 265.519 72.9689 247.035 74.3504C199.795 77.8862 71.3533 82.1244 71.1654 82.1244C50.3116 82.8151 19.1457 84.7821 5.19095 62.7129C-1.5307 52.0822 0.0244141 37.1665 4.32462 25.6929C10.3261 9.70002 24.3434 3.02657 39.0079 1.50456C64.068 -1.09457 90.0883 1.66847 115.159 2.89779C150.228 4.60713 185.277 6.80819 220.315 9.17316C234.03 10.0981 247.661 10.9996 261.376 11.784C264.663 11.9713 268.317 12.6504 271.99 13.7977L272.011 13.8094Z" fill="#F1B72B"/>
</svg>
