<svg width="433" height="90" viewBox="0 0 433 90" fill="none" xmlns="http://www.w3.org/2000/svg">
<path d="M3.81092 20.1935C3.57366 22.3347 3.45666 24.4921 3.2779 26.6321C1.96649 42.4003 -6.90302 69.2695 12.5553 80.8138C24.5335 87.92 44.8775 87.3109 59.1048 87.3769C123.453 87.6721 187.804 87.9935 252.151 88.4145C283.984 88.6226 315.817 88.8567 347.648 89.1233C363.902 89.2591 380.157 89.477 396.411 89.5605C408.358 89.6215 419.904 90.1248 426.273 80.6157C435.453 66.909 432.415 45.6576 431.757 30.7252C431.348 21.4516 427.828 11.458 418.044 5.99477C409.366 1.14934 397.83 0.938827 387.093 0.917652C267.631 0.685968 148.167 0.453038 28.705 0.221354C28.7034 0.221354 28.7001 0.221354 28.6985 0.221354C17.7717 0.201424 9.24508 3.63309 5.75122 11.96C4.63157 14.6269 4.11805 17.3959 3.80929 20.1935H3.81092Z" fill="white"/>
</svg>
