<svg width="281" height="59" viewBox="0 0 281 59" fill="none" xmlns="http://www.w3.org/2000/svg">
<path d="M3.25735 13.6775C3.10413 15.0603 3.02857 16.4536 2.91313 17.8356C2.06623 28.0186 -3.66167 45.3706 8.90444 52.8259C16.6399 57.4151 29.778 57.0217 38.9659 57.0643C80.522 57.255 122.079 57.4625 163.634 57.7344C184.192 57.8688 204.749 58.02 225.306 58.1921C235.803 58.2798 246.3 58.4206 256.797 58.4745C264.513 58.5139 271.969 58.8389 276.082 52.698C282.01 43.8462 280.049 30.1222 279.624 20.4789C279.359 14.49 277.086 8.0362 270.767 4.50805C265.163 1.37888 257.713 1.24294 250.779 1.22926C173.631 1.07964 96.482 0.929217 19.3339 0.779597C19.3328 0.779597 19.3307 0.779597 19.3297 0.779597C12.2732 0.766726 6.76671 2.98288 4.51039 8.36038C3.78732 10.0826 3.4557 11.8708 3.2563 13.6775H3.25735Z" fill="white"/>
</svg>
